<svg xmlns="http://www.w3.org/2000/svg" version="1.1" xmlns:xlink="http://www.w3.org/1999/xlink" xmlns:svgjs="http://svgjs.dev/svgjs" width="1457" height="580" preserveAspectRatio="none" viewBox="0 0 1457 580"><g mask="url(&quot;#SvgjsMask1092&quot;)" fill="none"><rect width="1457" height="580" x="0" y="0" fill="url(&quot;#SvgjsLinearGradient1093&quot;)"></rect><path d="M1457 0L1365.37 0L1457 56.59z" fill="rgba(255, 255, 255, .1)"></path><path d="M1365.37 0L1457 56.59L1457 158.65L774.6699999999998 0z" fill="rgba(255, 255, 255, .075)"></path><path d="M774.67 0L1457 158.65L1457 361.98L670.23 0z" fill="rgba(255, 255, 255, .05)"></path><path d="M670.23 0L1457 361.98L1457 434.46000000000004L332.73 0z" fill="rgba(255, 255, 255, .025)"></path><path d="M0 580L42.07 580L0 333z" fill="rgba(0, 0, 0, .1)"></path><path d="M0 333L42.07 580L465.42 580L0 320.37z" fill="rgba(0, 0, 0, .075)"></path><path d="M0 320.37L465.42 580L652.51 580L0 246.15z" fill="rgba(0, 0, 0, .05)"></path><path d="M0 246.14999999999998L652.51 580L1195.88 580L0 165.49999999999997z" fill="rgba(0, 0, 0, .025)"></path></g><defs><mask id="SvgjsMask1092"><rect width="1457" height="580" fill="#ffffff"></rect></mask><linearGradient x1="15.05%" y1="-37.8%" x2="84.95%" y2="137.8%" gradientUnits="userSpaceOnUse" id="SvgjsLinearGradient1093"><stop stop-color="#0e2a47" offset="0"></stop><stop stop-color="#00459e" offset="1"></stop></linearGradient></defs></svg>